<?xml version="1.0" encoding="UTF-8"?>
<svg width="18px"
	stroke-width="1.6"
	height="18px"
	viewBox="0 0 24 24"
	fill="none"
	xmlns="http://www.w3.org/2000/svg">

	<style>
		path {
			stroke: #6d0a1f; 
		}
		@media (prefers-color-scheme: dark) {
			path {
				stroke: #e29186;
			}
		}
	</style>

	<path d="M5 19.5V5C5 3.89543 5.89543 3 7 3H18.4C18.7314 3 19 3.26863 19 3.6V21"
		stroke-width="1.6"
		stroke-linecap="round"></path>
	<path d="M9 7L15 7"
		stroke-width="1.6"
		stroke-linecap="round"></path>
	<path d="M6.5 15L19 15"
		stroke-width="1.6"
		stroke-linecap="round"></path>
	<path d="M6.5 18L19 18"
		stroke-width="1.6"
		stroke-linecap="round"></path>
	<path d="M6.5 21L19 21"
		stroke-width="1.6"
		stroke-linecap="round"></path>
	<path d="M6.5 18C5.5 18 5 17.3284 5 16.5C5 15.6716 5.5 15 6.5 15"
		stroke-width="1.6"
		stroke-linecap="round"
		stroke-linejoin="round"></path>
	<path d="M6.5 21C5.5 21 5 20.3284 5 19.5C5 18.6716 5.5 18 6.5 18"
		stroke-width="1.6"
		stroke-linecap="round"
		stroke-linejoin="round"></path>
</svg>